<?xml version="1.0" encoding="utf-8"?>
<!-- Generator: Adobe Illustrator 24.0.2, SVG Export Plug-In . SVG Version: 6.00 Build 0)  -->
<svg version="1.1" id="Ebene_1" xmlns="http://www.w3.org/2000/svg" xmlns:xlink="http://www.w3.org/1999/xlink" x="0px" y="0px"
	 viewBox="0 0 96 24.1" style="enable-background:new 0 0 96 24.1;" xml:space="preserve">
<style type="text/css">
	.st0{fill:#003B4A;}
</style>
<g transform="translate(0)">
	<path class="st0" d="M0,23.7h4v-13c0.9-0.3,1.9-0.5,2.8-0.5c2.2,0,3.2,0.9,3.2,3.2v10.3h4V13.2c0-0.8-0.1-1.6-0.3-2.3
		c0.9-0.4,1.9-0.6,2.9-0.6c2.1,0,2.9,0.9,2.9,3.1v10.3h4V13.1c0-2.2-0.4-3.5-1.3-4.4c-1.4-1.2-3.2-1.8-5-1.6c-1.9,0-3.8,0.4-5.5,1.1
		C10.4,7.4,8.7,7,7.1,7C4.7,7.1,2.3,7.4,0,8.2L0,23.7z"/>
	<path class="st0" d="M39.3,20.6c-1,0.2-2,0.3-3,0.3c-1.5,0-2.2-0.6-2.2-1.8c0-1.8,1.2-2.5,5.2-2.9L39.3,20.6z M31.4,12.1
		c1.6-1.2,3.5-1.8,5.4-1.9c1.7,0,2.3,0.6,2.3,2.5v0.6l-0.3,0c-6.1,0.6-8.4,2.3-8.4,6c0,3.2,1.7,4.6,5.6,4.6c2.3,0,4.6-0.2,6.8-0.6
		V13c0-2.1-0.1-3.1-0.5-3.9C41.7,7.7,40.1,7,37.7,7c-2.2,0-4.4,0.6-6.3,1.7L31.4,12.1z"/>
	<path class="st0" d="M62.6,8c-1.3-0.6-2.8-1-4.3-0.9c-5.3,0-9,3.5-9,8.8c0,5.1,3.3,8.3,8.7,8.3c1.7,0,3.3-0.4,4.8-1.1v-3.4
		c-1.2,0.7-2.6,1.1-4,1.1c-3.4,0-5.4-1.9-5.4-5.2c0-3.2,2.1-5.2,5.4-5.2c1.3,0,2.7,0.4,3.8,1.1L62.6,8z"/>
	<path class="st0" d="M69.8,4.3h4.2V0h-4.2V4.3z M69.9,23.7h4V7.4h-4V23.7z"/>
	<path class="st0" d="M87.9,10.2c2.5,0,4,1.9,4,5.3s-1.5,5.4-4,5.4c-2.6,0-4-1.9-4-5.4C83.9,12.2,85.4,10.2,87.9,10.2 M88,7
		c-5,0-8.2,3.4-8.2,8.8c0,5.1,3.1,8.4,8,8.4c5,0,8.2-3.4,8.2-8.7C96,10.2,93,7,88,7"/>
</g>
</svg>
